<svg xmlns="http://www.w3.org/2000/svg" version="1.1" xmlns:xlink="http://www.w3.org/1999/xlink" xmlns:svgjs="http://svgjs.dev/svgjs" width="100%" height="100%" viewBox="0 0 1000 600"><rect width="1000" height="600" x="0" y="0" fill="#F7F7F7F8"/><g><circle r="166.66666666666666" cx="452.26932779947913" cy="474.49146093010586" fill="#006838" transform="matrix(0.4376710944065422,0,0,0.43767109440654217,0,92.32879155362617)"/><path d="M462.8479120174796 451.93821016067557L462.8479120174796 451.93821016067557Q471.8576989010118 448.282481936367 478.6222353790631 444.4252568807973Q485.4155571187232 440.5968170868363 489.96362845290236 436.7971625544841Q494.51169978708157 432.99750802213185 496.84330597738864 429.4569208442582Q499.17491216769565 425.9163336663845 499.17491216769565 422.9802369822942L499.17491216769565 422.9802369822942Q499.17491216769565 421.9727528259886 498.16742801139014 420.6486307919871Q497.1311585934759 419.35329401959433 495.0586197576474 418.2306688168539Q492.98608092181894 417.10804361411346 489.8484874064675 416.3596268122865Q486.710893891116 415.58242474885077 482.565816219459 415.58242474885077L482.565816219459 415.58242474885077Q471.4259199768809 415.58242474885077 461.9267836460003 418.28823934007136Q452.4276473151197 420.9652686696831 444.6268414191541 424.7937084636441Q436.8260355231885 428.65093351921377 430.8674863701816 432.8535817140882Q424.88015195556596 437.0562299089627 420.85021533034393 440.19382342431413L420.85021533034393 440.19382342431413Q418.31711230877573 442.12243595209895 416.4460703042084 443.99347795666637Q414.57502829964096 445.8645199612337 412.7903420798998 447.33256830327895Q411.0344411217673 448.8006166453241 408.9906875475475 449.69295975519475Q406.9757192349365 450.61408812667406 404.1547635972811 450.61408812667406L404.1547635972811 450.61408812667406Q399.89454487918914 450.61408812667406 397.50536816566466 448.599119814063Q395.14497671374886 446.55536623984324 395.14497671374886 442.9284232771434L395.14497671374886 442.9284232771434Q395.14497671374886 438.5530635126166 398.57042284518764 433.65956903913263Q402.02465423823514 428.73728930403996 408.09834443767693 423.9013653537735Q414.17203463711877 419.0366561418983 422.3470489339978 414.6325111157627Q430.5508484924856 410.2283660896272 440.02119956175744 406.8892757430146Q449.4915506310293 403.550185396402 459.73910376373686 401.535217083791Q470.01544215805313 399.49146350957125 480.34935107558687 399.49146350957125L480.34935107558687 399.49146350957125Q490.97111260920786 399.49146350957125 498.65677745873853 401.218579206095Q506.3424423082692 402.94569490261875 511.26472204336187 405.9681473715353Q516.1582165168459 409.01938510206054 518.5473932303703 413.16446277371756Q520.9365699438948 417.3095404453745 520.9365699438948 422.17424965724973Q520.9365699438948 427.03895886912494 517.6838353821084 432.3066617435224Q514.4598860819308 437.54557935631107 508.4149811440977 442.81328223070847Q502.3988614678733 448.08098510510587 493.7632829852546 452.8881237937636Q485.09891924102715 457.69526248242136 474.275660876145 461.63884332281725L474.275660876145 461.63884332281725Q485.01256345620095 465.17943050069096 491.71952941103484 469.0654408178694Q498.45528062747746 472.9802363966565 502.2549351598297 477.1828845915309Q506.05458969218193 481.3855327864054 507.37871172618344 485.8760335973671Q508.6740484985762 490.36653440832885 508.6740484985762 495.14488783537786L508.6740484985762 495.14488783537786Q508.6740484985762 502.1109211446903 504.8456087046153 508.90424288435037Q500.9883836490456 515.6687793624017 494.1662766477768 521.7136843002347Q487.3153843848993 527.7298039764592 477.96017436206233 532.8247952812042Q468.60496433922543 537.948571847558 457.5802091430822 541.6330853334753Q446.55545394693894 545.3175988193925 434.2929325016204 547.4189229168298Q422.05919631791056 549.4914617526583 409.5088222565047 549.4914617526583L409.5088222565047 549.4914617526583Q405.04710670715167 549.4914617526583 400.49903537297246 548.9733270437011Q395.9509640387933 548.455192334744 392.15130950644107 547.1598555623513Q388.35165497408883 545.8357335283497 385.991263522173 543.6192683844777Q383.60208680864855 541.3740179789968 383.60208680864855 537.8334308011231L383.60208680864855 537.8334308011231Q383.60208680864855 537.4304371386008 383.659657331866 537.085013999296Q383.6884425934747 536.7395908599913 383.8035836399096 536.2214561510343L383.8035836399096 536.2214561510343Q384.2065773024318 535.4154688259898 384.724712011389 534.2640583616407Q385.2140614587373 533.0838626356827 387.02753294008727 531.9612374329423Q388.86978968304595 530.8673974918106 392.7558000002243 530.090195428375Q396.6418103174028 529.3417786265479 403.95326676601996 529.3417786265479L403.95326676601996 529.3417786265479Q416.58999661225204 506.1696430315211 424.85136669395723 489.4166207752408Q433.08395151405375 472.6635985189605 438.6395070045385 461.8403401540784Q444.2238477566319 451.01708178919625 448.02350228898416 445.8645199612337Q451.79437155972767 440.6831728716625 455.45009978403624 440.6831728716625L455.45009978403624 440.6831728716625Q457.06207443412507 440.6831728716625 458.5876932993877 441.20130758061964Q460.1133121646503 441.69065702796803 461.2647226289995 442.5542148762299Q462.4449183549574 443.4177727244918 463.1357646335669 444.6843242352759Q463.8553961737851 445.9508757460599 463.8553961737851 447.47649461132255L463.8553961737851 447.47649461132255Q463.0494088487407 448.4839787676281 462.9342678023058 449.54903344715103Q462.8479120174796 450.61408812667406 462.8479120174796 451.93821016067557ZM457.2635712653862 471.2531207001328L457.2635712653862 471.2531207001328Q452.715499931207 481.5870296176665 448.7143485675936 489.76204391454553Q444.7131972039803 497.9658434730333 441.1726100261066 504.78795047430214Q437.63202284823296 511.63884273717963 434.4656440712728 517.5398213669691Q431.27048003270386 523.4695852583673 428.21924230217854 529.1402817952869L428.21924230217854 529.1402817952869Q439.96362903854003 528.1327976389814 450.1248263864214 525.0527746468474Q460.31480899591145 521.9439663931046 467.85654753739846 517.3958950589254Q475.39828607888546 512.8478237247461 479.6872900585861 507.1771271878266Q483.9762940382867 501.506430650907 483.9762940382867 495.23124362020405L483.9762940382867 495.23124362020405Q483.9762940382867 492.4102879825486 482.70974252750267 489.27269446719714Q481.4719762783273 486.1351009518457 478.42073854780205 482.99750743649423Q475.39828607888546 479.8599139211428 470.21693898931426 476.80867619061746Q465.06437716135173 473.78622372170094 457.2635712653862 471.2531207001328Z " fill="#f7f7f7" transform="matrix(0.4376710944065422,0,0,0.43767109440654217,0,92.32879155362617)"/><path d="M781.5151559749991 451.93821016067557L781.5151559749991 451.93821016067557Q790.5249428585312 448.282481936367 797.2894793365826 444.4252568807973Q804.0828010762426 440.5968170868363 808.6308724104218 436.7971625544841Q813.178943744601 432.99750802213185 815.510549934908 429.4569208442582Q817.8421561252152 425.9163336663845 817.8421561252152 422.9802369822942L817.8421561252152 422.9802369822942Q817.8421561252152 421.9727528259886 816.8346719689097 420.6486307919871Q815.7984025509953 419.35329401959433 813.7258637151668 418.2306688168539Q811.6533248793384 417.10804361411346 808.5157313639869 416.3596268122865Q805.3781378486354 415.58242474885077 801.2330601769785 415.58242474885077L801.2330601769785 415.58242474885077Q790.0931639344003 415.58242474885077 780.5940276035196 418.28823934007136Q771.0948912726392 420.9652686696831 763.2940853766736 424.7937084636441Q755.493279480708 428.65093351921377 749.534730327701 432.8535817140882Q743.5473959130854 437.0562299089627 739.5174592878634 440.19382342431413L739.5174592878634 440.19382342431413Q736.9843562662952 442.12243595209895 735.1133142617277 443.99347795666637Q733.2422722571605 445.8645199612337 731.4575860374192 447.33256830327895Q729.7016850792868 448.8006166453241 727.6579315050669 449.69295975519475Q725.6429631924559 450.61408812667406 722.8220075548005 450.61408812667406L722.8220075548005 450.61408812667406Q718.5617888367086 450.61408812667406 716.1726121231841 448.599119814063Q713.8122206712683 446.55536623984324 713.8122206712683 442.9284232771434L713.8122206712683 442.9284232771434Q713.8122206712683 438.5530635126166 717.237666802707 433.65956903913263Q720.6918981957546 428.73728930403996 726.7655883951963 423.9013653537735Q732.8392785946382 419.0366561418983 741.0142928915172 414.6325111157627Q749.2180924500051 410.2283660896272 758.6884435192769 406.8892757430146Q768.1587945885487 403.550185396402 778.4063477212562 401.535217083791Q788.6826861155726 399.49146350957125 799.0165950331062 399.49146350957125L799.0165950331062 399.49146350957125Q809.6383565667273 399.49146350957125 817.324021416258 401.218579206095Q825.0096862657887 402.94569490261875 829.9319660008813 405.9681473715353Q834.8254604743653 409.01938510206054 837.2146371878897 413.16446277371756Q839.6038139014144 417.3095404453745 839.6038139014144 422.17424965724973Q839.6038139014144 427.03895886912494 836.351079339628 432.3066617435224Q833.1271300394502 437.54557935631107 827.0822251016172 442.81328223070847Q821.0661054253927 448.08098510510587 812.430526942774 452.8881237937636Q803.7661631985467 457.69526248242136 792.9429048336644 461.63884332281725L792.9429048336644 461.63884332281725Q803.6798074137204 465.17943050069096 810.3867733685544 469.0654408178694Q817.122524584997 472.9802363966565 820.9221791173492 477.1828845915309Q824.7218336497014 481.3855327864054 826.0459556837028 485.8760335973671Q827.3412924560956 490.36653440832885 827.3412924560956 495.14488783537786L827.3412924560956 495.14488783537786Q827.3412924560956 502.1109211446903 823.5128526621348 508.90424288435037Q819.655627606565 515.6687793624017 812.8335206052963 521.7136843002347Q805.9826283424187 527.7298039764592 796.6274183195817 532.8247952812042Q787.2722082967448 537.948571847558 776.2474531006017 541.6330853334753Q765.2226979044584 545.3175988193925 752.9601764591398 547.4189229168298Q740.7264402754299 549.4914617526583 728.1760662140241 549.4914617526583L728.1760662140241 549.4914617526583Q723.7143506646712 549.4914617526583 719.166279330492 548.9733270437011Q714.6182079963128 548.455192334744 710.8185534639605 547.1598555623513Q707.0188989316082 545.8357335283497 704.6585074796925 543.6192683844777Q702.269330766168 541.3740179789968 702.269330766168 537.8334308011231L702.269330766168 537.8334308011231Q702.269330766168 537.4304371386008 702.3269012893854 537.085013999296Q702.3556865509942 536.7395908599913 702.4708275974291 536.2214561510343L702.4708275974291 536.2214561510343Q702.8738212599512 535.4154688259898 703.3919559689084 534.2640583616407Q703.8813054162567 533.0838626356827 705.6947768976067 531.9612374329423Q707.5370336405654 530.8673974918106 711.4230439577439 530.090195428375Q715.3090542749222 529.3417786265479 722.6205107235394 529.3417786265479L722.6205107235394 529.3417786265479Q735.2572405697715 506.1696430315211 743.5186106514767 489.4166207752408Q751.7511954715733 472.6635985189605 757.3067509620579 461.8403401540784Q762.8910917141513 451.01708178919625 766.6907462465035 445.8645199612337Q770.4616155172471 440.6831728716625 774.1173437415557 440.6831728716625L774.1173437415557 440.6831728716625Q775.7293183916445 440.6831728716625 777.2549372569072 441.20130758061964Q778.7805561221699 441.69065702796803 779.9319665865189 442.5542148762299Q781.1121623124768 443.4177727244918 781.8030085910864 444.6843242352759Q782.5226401313046 445.9508757460599 782.5226401313046 447.47649461132255L782.5226401313046 447.47649461132255Q781.7166528062601 448.4839787676281 781.6015117598253 449.54903344715103Q781.5151559749991 450.61408812667406 781.5151559749991 451.93821016067557ZM775.9308152229056 471.2531207001328L775.9308152229056 471.2531207001328Q771.3827438887265 481.5870296176665 767.3815925251131 489.76204391454553Q763.3804411614997 497.9658434730333 759.8398539836261 504.78795047430214Q756.2992668057524 511.63884273717963 753.1328880287922 517.5398213669691Q749.9377239902233 523.4695852583673 746.886486259698 529.1402817952869L746.886486259698 529.1402817952869Q758.6308729960595 528.1327976389814 768.7920703439408 525.0527746468474Q778.9820529534309 521.9439663931046 786.523791494918 517.3958950589254Q794.0655300364049 512.8478237247461 798.3545340161055 507.1771271878266Q802.6435379958062 501.506430650907 802.6435379958062 495.23124362020405L802.6435379958062 495.23124362020405Q802.6435379958062 492.4102879825486 801.376986485022 489.27269446719714Q800.1392202358467 486.1351009518457 797.0879825053214 482.99750743649423Q794.0655300364049 479.8599139211428 788.8841829468337 476.80867619061746Q783.7316211188711 473.78622372170094 775.9308152229056 471.2531207001328ZM851.5209122074281 516.1869140713588L851.5209122074281 516.1869140713588Q850.4270722662965 518.5185202616658 849.3620175867735 521.5985432537998Q848.2969629072505 524.6785662459339 848.2969629072505 527.1253134826759L848.2969629072505 527.1253134826759Q848.2969629072505 528.6221470863297 848.9014534010338 529.5432754578092Q849.505943894817 530.4644038292884 851.2330595913407 530.4644038292884L851.2330595913407 530.4644038292884Q853.3631689503867 530.4644038292884 856.529547727347 529.1978523185044Q859.7247117659159 527.9313008077202 863.438010513442 525.8587619718917Q867.1225239993593 523.7862231360633 871.1236753629727 521.0804085448427Q875.1248267265859 518.4033792152309 879.0684075669818 515.5248530543581Q883.0119884073778 512.6463268934851 886.6101461084687 509.7678007326122Q890.1795185479513 506.88927457173935 893.0292594472154 504.44252733499735L893.0292594472154 504.44252733499735Q893.8352467722599 503.75168105638784 894.9578719750003 503.43504317869184Q896.0517119161319 503.1184053009958 896.8576992411764 503.1184053009958L896.8576992411764 503.1184053009958Q898.901452815396 503.1184053009958 900.1967895877889 504.5576683814323Q901.5209116217906 505.96814620026 901.5209116217906 508.29975239056705L901.5209116217906 508.29975239056705Q901.5209116217906 510.429861749613 900.1104338029628 513.0493205560074Q898.699955984135 515.6687793624017 895.1593688062613 518.2018823839699L895.1593688062613 518.2018823839699Q888.6826849442972 524.1892167985854 882.0908600358983 529.5432754578092Q875.5278203891081 534.8973341170326 868.9935660039267 539.013626527081Q862.4593116187451 543.1011336755205 856.0401982799984 545.5478809122624Q849.621084941252 547.9658428873956 843.5473947418101 547.9658428873956L843.5473947418101 547.9658428873956Q839.4023170701531 547.9658428873956 836.6101466941064 546.8432176846552Q833.8179763180598 545.7493777435236 832.1484311447535 543.8207652157387Q830.4788859714471 541.8921526879539 829.7880396928377 539.2726938815595Q829.0684081526196 536.6244498135563 829.0684081526196 533.6883531294661L829.0684081526196 533.6883531294661Q829.0684081526196 528.7372881327647 830.5364564946645 523.5271557815847Q832.0045048367098 518.3170234304048 834.0194731493208 513.9704489274866L834.0194731493208 513.9704489274866Q837.5600603271945 506.0545019850862 841.2157885515031 498.28248135072937Q844.8427315142029 490.4816754547638 847.8939692447283 484.00499159279974L847.8939692447283 484.00499159279974L878.5502728580246 418.7200182642022Q880.3637443393746 414.7764374238064 883.4725525931173 413.16446277371756Q886.5525755852512 411.55248812362873 889.6901691006027 411.55248812362873Q892.8277626159544 411.55248812362873 895.3896508991312 413.2796038201525Q897.9803244439169 414.9779342550675 897.9803244439169 418.83515931063715L897.9803244439169 418.83515931063715Q897.9803244439169 420.6486307919871 897.1167665956549 422.69238436620685Q896.2532087473929 424.7073526788179 894.9578719750003 427.03895886912494L894.9578719750003 427.03895886912494Q892.4247689534321 431.7885270345653 888.912967037167 438.6682045590515Q885.4299503825108 445.54788208353773 881.4287990188976 453.6365405955906Q877.4276476552842 461.7539843692522 873.2537847220186 470.5047038983058Q869.051136527144 479.25542342735946 865.0499851635308 487.5455787706734Q861.0488337999174 495.83573411398737 857.5658171452611 503.2911168706482Q854.0540152289963 510.71771436570026 851.5209122074281 516.1869140713588ZM926.7368007910371 489.6756881297194L926.7368007910371 489.6756881297194Q921.9584473639881 489.6756881297194 917.5543023378526 492.06486484324387Q913.150157311717 494.42525629515967 909.7822817034956 498.31126661233804Q906.3856208336657 502.2260621911252 904.3706525210547 507.11955666460915Q902.3268989468348 512.0418363997019 902.3268989468348 517.1943982276644L902.3268989468348 517.1943982276644Q902.3268989468348 519.1230107554492 902.643536824531 521.3970464225388Q902.9313894406181 523.6710820896283 903.910088335315 525.6572651406307Q904.860001968403 527.6146629300242 906.673473449753 528.9387849640257Q908.5157301927117 530.2629069980273 911.5381826616282 530.2629069980273L911.5381826616282 530.2629069980273Q916.2013950422423 530.2629069980273 920.6055400683778 527.7873744996766Q925.0096850945134 525.2830567397173 928.435131225952 521.3106906377126Q931.8893626189996 517.3095392740993 933.9043309316106 512.2433332309629Q935.9480845058303 507.1771271878266 935.9480845058303 502.0245653598641L935.9480845058303 502.0245653598641Q935.9480845058303 499.98081178564433 935.6890171513518 497.82191716498966Q935.4299497968733 495.63423728272625 934.4800361637853 493.82076580137635Q933.5013372690884 492.0072943200264 931.6878657877386 490.8270985940685Q929.8743943063886 489.6756881297194 926.7368007910371 489.6756881297194ZM931.9757184038257 471.85761119391606L931.9757184038257 471.85761119391606Q935.8329434593956 471.85761119391606 940.237088485531 472.86509535022157Q944.6412335116667 473.8725795065271 948.3833175208014 476.3193267432691Q952.1254015299361 478.73728871840234 954.6009340282868 482.73844008201564Q957.0764665266375 486.739591445629 957.0764665266375 492.6117848138097L957.0764665266375 492.6117848138097Q957.0764665266375 495.63423728272625 956.270479201593 499.5490328615134Q955.4644918765485 503.43504317869184 953.8525172264598 507.69526189678373L953.8525172264598 507.69526189678373Q954.8600013827653 508.90424288435037 956.184123416767 509.39359233169876Q957.4794601891598 509.9117270406559 959.0050790544223 509.9117270406559L959.0050790544223 509.9117270406559Q961.1351884134682 509.9117270406559 963.7258619582539 508.70274605308924Q966.2877502414309 507.4937650655226 969.0223500942601 505.5651525377378Q971.7569499470893 503.63654000995297 974.4915497999185 501.2185780348197Q977.226149652748 498.7718307980777 979.644111627881 496.3538688229445Q982.0908588646231 493.9359068478113 984.0482566540167 491.7482269655479Q986.0344397050188 489.56054708328446 987.3297764774117 488.0637134796305L987.3297764774117 488.0637134796305Q988.0494080176301 487.3440819394123 989.0568921739356 487.3440819394123L989.0568921739356 487.3440819394123Q990.4673699927631 487.3440819394123 991.5899951955035 488.8121302814575Q992.712620398244 490.28017862350265 992.712620398244 492.89963742989704Q992.712620398244 495.54788149790005 991.1294310097641 498.9733276293388Q989.5750268828925 502.42755902238633 985.3148081648006 506.1696430315211L985.3148081648006 506.1696430315211Q982.8968461896674 508.78910183791544 979.7592526743159 512.2433332309629Q976.6216591589645 515.6687793624017 973.081071981091 518.720017092927Q969.5404848032173 521.7424695618436 965.6832597476474 523.8725789208895Q961.8548199536866 526.0026882799355 957.9975948981167 526.0026882799355L957.9975948981167 526.0026882799355Q955.3781360917225 526.0026882799355 952.8738183317631 525.196700954891Q950.3982858334124 524.3907136298466 947.8651828118442 522.548456886888L947.8651828118442 522.548456886888Q944.2382398491444 528.2191534238075 939.5750274685303 532.8823658044216Q934.9118150879161 537.5455781850358 929.2123332893879 540.8846685316482Q923.4840662292507 544.2237588782609 916.863456059243 546.0948008828283Q910.2428458892354 547.9658428873956 902.7298926093571 547.9658428873956L902.7298926093571 547.9658428873956Q899.9089369717016 547.9658428873956 896.1668529625668 546.8432176846552Q892.4247689534321 545.7493777435236 889.028108083602 543.158704198738Q885.631447213772 540.5680306539523 883.2998410234649 536.4229529822953Q880.9970200947668 532.2778753106384 880.9970200947668 526.3193261576314L880.9970200947668 526.3193261576314Q880.9970200947668 522.2606042708006 882.2923568671594 516.5899077338811Q883.616478901161 510.9192111969614 886.2935082307728 504.903091520737Q888.9705375603845 498.88697184451263 893.0868299704329 492.95720795311445Q897.1743371188724 487.02744406171627 902.845033655792 482.33544641949345Q908.5157301927117 477.64344877727063 915.7984013797201 474.736137354789Q923.0810725667285 471.85761119391606 931.9757184038257 471.85761119391606ZM1012.5456656466584 489.6756881297194L1012.5456656466584 489.6756881297194Q1007.7960974812182 489.6756881297194 1003.3919524550826 492.06486484324387Q998.9878074289471 494.42525629515967 995.591146559117 498.31126661233804Q992.194485689287 502.2260621911252 990.1795173766758 507.11955666460915Q988.1645490640648 512.0418363997019 988.1645490640648 517.1943982276644L988.1645490640648 517.1943982276644Q988.1645490640648 519.1230107554492 988.4524016801521 521.3970464225388Q988.7690395578483 523.6710820896283 989.7189531909363 525.6572651406307Q990.6688668240243 527.6146629300242 992.511123566983 528.9387849640257Q994.324595048333 530.2629069980273 997.3470475172495 530.2629069980273L997.3470475172495 530.2629069980273Q1002.0102598978636 530.2629069980273 1006.4144049239991 527.7873744996766Q1010.8185499501345 525.2830567397173 1014.2727813431821 521.3106906377126Q1017.6982274746209 517.3095392740993 1019.7131957872319 512.2433332309629Q1021.7569493614516 507.1771271878266 1021.7569493614516 502.0245653598641L1021.7569493614516 502.0245653598641Q1021.7569493614516 499.98081178564433 1021.4978820069731 497.82191716498966Q1021.2388146524946 495.63423728272625 1020.2889010194066 493.82076580137635Q1019.3102021247097 492.0072943200264 1017.4967306433597 490.8270985940685Q1015.6832591620099 489.6756881297194 1012.5456656466584 489.6756881297194ZM1017.8133685210558 471.85761119391606L1017.8133685210558 471.85761119391606Q1021.6418083150169 471.85761119391606 1026.0459533411522 472.86509535022157Q1030.4500983672879 473.8725795065271 1034.1921823764228 476.3193267432691Q1037.9342663855573 478.73728871840234 1040.409798883908 482.73844008201564Q1042.9141166438676 486.739591445629 1042.9141166438676 492.6117848138097L1042.9141166438676 492.6117848138097Q1042.9141166438676 495.63423728272625 1042.0793440572143 499.5490328615134Q1041.2733567321702 503.43504317869184 1039.6613820820812 507.69526189678373L1039.6613820820812 507.69526189678373Q1040.6688662383867 508.90424288435037 1041.9929882723882 509.39359233169876Q1043.3171103063896 509.9117270406559 1044.8139439100437 509.9117270406559L1044.8139439100437 509.9117270406559Q1046.9440532690896 509.9117270406559 1049.5347268138753 508.70274605308924Q1052.096615097052 507.4937650655226 1054.8312149498815 505.5651525377378Q1057.5658148027105 503.63654000995297 1060.30041465554 501.2185780348197Q1063.035014508369 498.7718307980777 1065.4817617451113 496.3538688229445Q1067.8997237202443 493.9359068478113 1069.857121509638 491.7482269655479Q1071.8433045606403 489.56054708328446 1073.1674265946417 488.0637134796305L1073.1674265946417 488.0637134796305Q1073.8582728732513 487.3440819394123 1074.8657570295568 487.3440819394123L1074.8657570295568 487.3440819394123Q1076.3050201099932 487.3440819394123 1077.3988600511248 488.8121302814575Q1078.5214852538652 490.28017862350265 1078.5214852538652 492.89963742989704Q1078.5214852538652 495.54788149790005 1076.967081126994 498.9733276293388Q1075.3838917385137 502.42755902238633 1071.1236730204218 506.1696430315211L1071.1236730204218 506.1696430315211Q1068.7057110452888 508.78910183791544 1065.5681175299374 512.2433332309629Q1062.430524014586 515.6687793624017 1058.889936836712 518.720017092927Q1055.3493496588385 521.7424695618436 1051.4921246032686 523.8725789208895Q1047.6636848093076 526.0026882799355 1043.8064597537382 526.0026882799355L1043.8064597537382 526.0026882799355Q1041.1870009473437 526.0026882799355 1038.711468448993 525.196700954891Q1036.2071506890338 524.3907136298466 1033.7028329290742 522.548456886888L1033.7028329290742 522.548456886888Q1030.0471047047654 528.2191534238075 1025.3838923241515 532.8823658044216Q1020.7494652051461 537.5455781850358 1015.021198145009 540.8846685316482Q1009.2929310848721 544.2237588782609 1002.6723209148644 546.0948008828283Q996.0517107448567 547.9658428873956 988.567542726587 547.9658428873956L988.567542726587 547.9658428873956Q985.7178018273229 547.9658428873956 981.9757178181882 546.8432176846552Q978.2336338090532 545.7493777435236 974.8369729392233 543.158704198738Q971.4403120693934 540.5680306539523 969.137491140695 536.4229529822953Q966.8058849503878 532.2778753106384 966.8058849503878 526.3193261576314L966.8058849503878 526.3193261576314Q966.8058849503878 522.2606042708006 968.1012217227807 516.5899077338811Q969.4253437567824 510.9192111969614 972.1023730863941 504.903091520737Q974.8081876776147 498.88697184451263 978.8956948260542 492.95720795311445Q982.9832019744937 487.02744406171627 988.6538985114133 482.33544641949345Q994.324595048333 477.64344877727063 1001.6072662353414 474.736137354789Q1008.8899374223498 471.85761119391606 1017.8133685210558 471.85761119391606ZM1091.6763498090545 541.97850847278L1091.6763498090545 541.97850847278Q1091.6763498090545 537.1425845225135 1093.8640296913181 532.0763784793772Q1096.0229243119725 527.010172436241 1099.3620146585854 521.6561137770173Q1102.7011050051979 516.2732698561849 1106.6446858455938 510.7752848889177Q1110.5882666859898 505.24851466004174 1114.157639125472 499.49146233829595L1114.157639125472 499.49146233829595Q1115.1651232817776 497.8794876882071 1115.7696137755606 496.41143934616196Q1116.3741042693441 494.9433910041168 1116.3741042693441 493.4177721388541L1116.3741042693441 493.4177721388541Q1116.3741042693441 491.80579748876534 1115.4529758978647 490.74074280924236Q1114.560632787994 489.6756881297194 1112.8335170914706 489.6756881297194L1112.8335170914706 489.6756881297194Q1108.6884394198132 489.6756881297194 1104.8312143642438 491.4315890878518Q1100.973989308674 493.21627530759304 1097.4334021308005 496.09480146846596Q1093.8928149529265 498.9733276293388 1090.7264361759667 502.7154116384736Q1087.5312721373975 506.45749564760837 1084.7391017613509 510.45864701122173Q1081.975716646913 514.4597983748351 1079.5289694101707 518.4033792152309Q1077.1110074350377 522.3469600556268 1075.0672538608178 525.5996946174132L1075.0672538608178 525.5996946174132Q1073.2537823794678 528.9387849640257 1071.7281635142053 532.8823658044216Q1070.2313299105513 536.8259466448176 1068.44664369081 540.16503699143Q1066.6907427326778 543.5041273380427 1064.445492327197 545.7781630051322Q1062.229027183325 548.0521986722218 1058.889936836712 548.0521986722218L1058.889936836712 548.0521986722218Q1055.2342086124036 548.0521986722218 1053.1328845149665 545.7493777435236Q1051.0027751559205 543.4177715532164 1051.0027751559205 540.16503699143L1051.0027751559205 540.16503699143Q1051.0027751559205 538.3515655100803 1052.2981119283131 534.4943404545104Q1053.6222339623146 530.6659006605496 1055.6947727981433 525.5421240941957Q1057.7673116339715 520.4471327894507 1060.4155557019749 514.6612952060962Q1063.035014508369 508.90424288435037 1065.6256880531546 503.2335463474308Q1068.1875763363319 497.5628498105111 1070.49039726503 492.55421429059226Q1072.7644329321197 487.5455787706734 1074.2612665357733 484.00499159279974L1074.2612665357733 484.00499159279974Q1076.1035232787322 479.65841708988165 1079.068405224431 477.5283077308357Q1082.0620724317391 475.39819837178976 1084.9981691158296 475.39819837178976L1084.9981691158296 475.39819837178976Q1087.5312721373975 475.39819837178976 1089.4886699267913 477.2692403763571Q1091.4748529777935 479.14028238092453 1091.4748529777935 482.6808695587982L1091.4748529777935 482.6808695587982Q1091.4748529777935 485.3291136268013 1090.265871990227 488.46670714215276L1090.265871990227 488.46670714215276Q1093.000471843056 485.93360412058456 1096.1380653584074 482.99750743649423Q1099.2756588737589 480.06141075240384 1102.960172359676 477.58587825405317Q1106.6446858455938 475.11034575570244 1111.2215424413816 473.4695858440049Q1115.7696137755606 471.85761119391606 1121.4403103124805 471.85761119391606L1121.4403103124805 471.85761119391606Q1124.261265950136 471.85761119391606 1126.794368971704 472.5772427341343Q1129.327471993272 473.2680890127438 1131.2848697826657 474.79370787800644Q1133.271052833668 476.3193267432691 1134.5376043444521 478.73728871840234Q1135.8041558552363 481.1840359551443 1136.0056526864973 484.60948208658306L1136.0056526864973 484.60948208658306Q1138.3372588768043 482.277875896276 1141.0718587296337 480.0038402291864Q1143.8064585824627 477.72980456209683 1146.972837359423 475.9163330807469Q1150.1680013979922 474.0740763377882 1153.9100854071266 472.9802363966565Q1157.6521694162616 471.85761119391606 1162.2002407504406 471.85761119391606L1162.2002407504406 471.85761119391606Q1165.539331097053 471.85761119391606 1168.5905688275784 472.5772427341343Q1171.613021296495 473.2680890127438 1174.0021980100196 474.9376341860501Q1176.3913747235442 476.6071793593564 1177.7442820191545 479.25542342735946Q1179.1259745763732 481.8748822337538 1179.1259745763732 485.7321072893235L1179.1259745763732 485.7321072893235Q1179.1259745763732 491.80579748876534 1176.3338042003265 497.2749971944238Q1173.5416338242799 502.7154116384736 1169.7995498151454 507.29226823426154L1169.7995498151454 507.29226823426154Q1168.5905688275784 508.78910183791544 1166.5756005149674 511.1207080282225Q1164.5318469407475 513.4523142185296 1162.6320196745714 516.0717730249239Q1160.703407146787 518.720017092927 1159.2641440663501 521.5121874689737Q1157.8536662475226 524.2755725834118 1157.8536662475226 526.7223198201536L1157.8536662475226 526.7223198201536Q1157.8536662475226 528.9387849640257 1159.2353588047417 529.5432754578092Q1160.588266100352 530.1477659515924 1162.833516505833 530.1477659515924L1162.833516505833 530.1477659515924Q1167.064949962316 530.1477659515924 1172.0160149590174 527.6146629300242Q1176.9958652173273 525.081559908456 1181.6878628595505 521.5121874689737Q1186.4086457633816 517.9140297678825 1190.4961529118214 513.9992341890954Q1194.5836600602606 510.113223871917 1197.030407297003 507.4937650655226L1197.030407297003 507.4937650655226Q1197.634897790786 506.7741335253044 1198.4408851158305 506.45749564760837Q1199.246872440875 506.1696430315211 1200.0528597659195 506.1696430315211L1200.0528597659195 506.1696430315211Q1201.895116508878 506.1696430315211 1203.363164850923 507.78161768160993Q1204.8312131929683 509.39359233169876 1204.8312131929683 512.0418363997019L1204.8312131929683 512.0418363997019Q1204.8312131929683 514.0568047123129 1203.593446943793 516.5035519490548Q1202.3844659562264 518.921513924188 1199.448369272136 521.2531201144951L1199.448369272136 521.2531201144951Q1193.9791695664776 526.5208229888925 1188.2796877679493 531.3279616775503Q1182.5514207078122 536.135100366208 1176.736797862849 539.8196138521253Q1170.9221750178854 543.5041273380427 1165.1075521729222 545.7493777435236Q1159.2641440663501 547.9658428873956 1153.5070917446046 547.9658428873956L1153.5070917446046 547.9658428873956Q1146.0229237263352 547.9658428873956 1141.417281868938 544.4252557095219Q1136.8116400115418 540.8846685316482 1136.8116400115418 533.1990036821177L1136.8116400115418 533.1990036821177Q1136.8116400115418 528.1327976389814 1138.7402525393263 523.6710820896283Q1140.6688650671113 519.2093665402754 1143.4898207047668 515.1218593918359Q1146.3107763424223 511.0343522433963 1149.4483698577737 507.1771271878266Q1152.5859633731252 503.3199021322569 1154.9175695634322 499.49146233829595L1154.9175695634322 499.49146233829595Q1155.9250537197377 497.8794876882071 1156.55832947513 496.41143934616196Q1157.162819968913 494.9433910041168 1157.162819968913 493.4177721388541L1157.162819968913 493.4177721388541Q1157.162819968913 491.80579748876534 1156.2416915974336 490.74074280924236Q1155.3205632259546 489.6756881297194 1153.6222327910396 489.6756881297194L1153.6222327910396 489.6756881297194Q1149.4483698577737 489.6756881297194 1145.6199300638127 491.4315890878518Q1141.7627050082428 493.21627530759304 1138.2221178303694 496.09480146846596Q1134.6815306524954 498.9733276293388 1131.4863666139267 502.7154116384736Q1128.3199878369664 506.45749564760837 1125.5278174609198 510.45864701122173Q1122.735647084873 514.4597983748351 1120.31768510974 518.4033792152309Q1117.8997231346066 522.3469600556268 1115.8559695603867 525.5996946174132L1115.8559695603867 525.5996946174132Q1114.0424980790372 528.9387849640257 1112.5168792137742 532.8823658044216Q1111.0200456101202 536.8259466448176 1109.2353593903795 540.16503699143Q1107.4506731706383 543.5041273380427 1105.2342080267658 545.7781630051322Q1103.0177428828938 548.0521986722218 1099.6786525362813 548.0521986722218L1099.6786525362813 548.0521986722218Q1098.4696715487148 548.0521986722218 1097.030408468278 547.6204197480909Q1095.6199306494505 547.1598555623513 1094.4685201851012 546.3538682373069Q1093.2883244591435 545.5478809122624 1092.5399076573162 544.4252557095219Q1091.7914908554894 543.3026305067815 1091.6763498090545 541.97850847278ZM1339.2008143825155 516.5899077338811L1339.2008143825155 516.5899077338811Q1338.711464935167 518.5185202616658 1338.1357597029928 520.9940527600165Q1337.5888397324265 523.4695852583673 1337.5888397324265 525.6860504022394L1337.5888397324265 525.6860504022394Q1337.5888397324265 527.7298039764592 1338.19333022621 529.1402817952869Q1338.7978207199935 530.5507596141147 1340.841574294213 530.5507596141147L1340.841574294213 530.5507596141147Q1343.5473888854335 530.5507596141147 1347.3470434177862 528.5933618247211Q1351.1466979501383 526.6071787737187 1355.4932724530563 523.3256589503236Q1359.8398469559743 520.0441391269285 1364.5030593365882 515.7263498856191Q1369.1662717172026 511.4373459059185 1373.7143430513815 506.8317040485219Q1378.262414385561 502.2260621911252 1382.407492057218 497.5628498105111Q1386.5813549904838 492.89963742989704 1389.8053042906613 488.86970080467495L1389.8053042906613 488.86970080467495L1393.5473882997958 502.3124179759514Q1386.8692076065709 511.23584907465744 1379.7880332508234 519.4108633715364Q1372.706858895076 527.6146629300242 1365.3666171848504 533.8898499607271Q1358.0263754746243 540.16503699143 1350.6573485027898 543.9071210005649Q1343.2595362693464 547.6492050096997 1335.976865082338 547.6492050096997L1335.976865082338 547.6492050096997Q1331.7166463642461 547.6492050096997 1328.722979156938 546.2962977140894Q1325.7580972112391 544.9146051568705 1323.9158404682803 542.5542137049547Q1322.1023689869303 540.16503699143 1321.2388111386686 537.085013999296Q1320.3752532904068 534.0049910071621 1320.3752532904068 530.5507596141147L1320.3752532904068 530.5507596141147Q1320.3752532904068 529.226637580113 1320.4903943368417 526.8086756049798Q1320.5767501216678 524.3907136298466 1320.7494616913204 521.800040085061Q1320.8933879993638 519.2093665402754 1321.0373143074075 517.108042442838Q1321.1812406154513 514.9779330837922 1321.1812406154513 514.3734425900088L1321.1812406154513 514.3734425900088L1285.2572341277573 516.5899077338811L1268.5617823946945 516.7914045651421Q1264.3303489382115 526.0026882799355 1260.1852712665545 533.0838626356827L1260.1852712665545 533.0838626356827Q1258.3430145235957 536.135100366208 1256.3280462109847 539.0711970502985Q1254.3130778983736 541.97850847278 1252.2693243241538 544.2813294014784Q1250.2543560115428 546.5553650685679 1248.2393876989318 547.9082723641782Q1246.195634124712 549.2899649213973 1244.2958068585358 549.2899649213973L1244.2958068585358 549.2899649213973Q1241.2445691280104 549.2899649213973 1239.315956600226 548.3688365499179Q1237.4161293340499 547.4477081784385 1236.2935041313094 546.0948008828283Q1235.170878928569 544.7131083256093 1234.7103147428293 543.0147778906942Q1234.2785358186984 541.2876621941705 1234.2785358186984 539.7620433289079L1234.2785358186984 539.7620433289079Q1234.2785358186984 537.1425845225135 1234.9693820973075 534.5519109777279Q1235.689013637526 531.9612374329423 1236.9843504099185 529.658416504244L1236.9843504099185 529.658416504244L1250.3694970579777 507.1771271878266Q1251.2618401678483 505.7666493689989 1254.054010543895 500.4125907097753Q1256.8461809199416 495.02974678894293 1261.2215406844684 487.20015563136866Q1265.625685710604 479.3417792121856 1271.4115232939585 469.84264288130504Q1277.1685756157044 460.31472128881575 1283.904326832147 450.5565176034566Q1290.6400780485897 440.79831391809745 1298.1818165900768 431.58703020330415Q1305.7235551315634 422.37574648851086 1313.668287335573 415.23700160954604Q1321.6130195395822 408.0982567305812 1329.701678051635 403.8092527508806Q1337.790336563688 399.49146350957125 1345.7926392909144 399.49146350957125L1345.7926392909144 399.49146350957125Q1353.2768073091843 399.49146350957125 1360.501907972975 404.1546758901854Q1367.7557938983746 408.8178882707995 1374.318833545165 419.43964980442047L1374.318833545165 419.43964980442047Q1375.0384650853835 420.85012762324817 1375.0384650853835 421.85761177955374L1375.0384650853835 421.85761177955374Q1375.0384650853835 423.18173381355524 1374.318833545165 424.5058558475568Q1373.6279872665555 425.82997788155836 1372.4477915405978 426.8374620378639Q1371.2963810762485 427.8449461941694 1369.8859032574205 428.44943668795264Q1368.4466401769841 429.053927181736 1366.9498065733305 429.053927181736L1366.9498065733305 429.053927181736Q1365.1075498303717 429.053927181736 1362.7471583784559 428.2479398566916Q1360.3579816649312 427.44195253164713 1358.2278723058853 424.7937084636441L1358.2278723058853 424.7937084636441Q1355.0902787905338 421.1667655009442 1351.6936179207041 419.49722032763793Q1348.3257423124824 417.82767515433164 1344.98665196587 417.82767515433164L1344.98665196587 417.82767515433164Q1340.208298538821 417.82767515433164 1335.2572335421196 420.5047044839435Q1330.3061685454181 423.18173381355524 1325.2975330254994 427.7873756709519Q1320.2888975055807 432.39301752834854 1315.3378325088793 438.4091372045729Q1310.357982250569 444.4252568807973 1305.7235551315634 451.1034375740224Q1301.0603427509495 457.78161826724755 1296.7137682480316 464.77643683816876Q1292.3671937451136 471.77125540908986 1288.5099686895437 478.132798224619Q1284.6527436339743 484.52312630175686 1281.4863648570135 489.87718496098046Q1278.2912008184448 495.23124362020405 1275.844453581703 498.88697184451263L1275.844453581703 498.88697184451263L1294.3821620577246 498.88697184451263L1325.6429561648042 496.55536565420556Q1326.5640845362836 494.54039734159454 1328.089703401546 491.0285954253296Q1329.5865370052002 487.5455787706734 1331.4575790097674 483.19900426775536Q1333.3286210143347 478.85242976483727 1335.5738714198155 473.78622372170094Q1337.790336563688 468.7200176785646 1340.0643722307773 463.6250263738196Q1342.338407897867 458.5012498074658 1344.5836583033479 453.4926142875469Q1346.80012344722 448.4839787676281 1348.7287359750048 444.2237600495362L1348.7287359750048 444.2237600495362Q1350.024072747398 440.3953202555752 1352.614746292183 438.78334560548643Q1355.2054198369688 437.1425856937889 1358.1415165210592 437.1425856937889L1358.1415165210592 437.1425856937889Q1359.6383501247133 437.1425856937889 1361.1639689899757 437.60314987952853Q1362.6895878552386 438.0637140652682 1363.9561393660224 439.01362769835623Q1365.2226908768066 439.992326593053 1366.028678201851 441.46037493509823Q1366.8346655268952 442.9284232771434 1366.9498065733305 444.9433915897544L1366.9498065733305 444.9433915897544Q1366.9498065733305 446.87200411753923 1365.2802614000238 451.50643123654464Q1363.6107162267176 456.1696436171587 1361.020042681932 462.4448306478617Q1358.4293691371468 468.7200176785646 1355.2342050985776 476.0602593887905Q1352.0678263216173 483.4005010990164 1348.9878033294835 490.74074280924236Q1345.8789950757405 498.08098451946825 1343.2595362693464 504.78795047430214Q1340.611292201343 511.5237016907447 1339.2008143825155 516.5899077338811ZM1431.9181420242317 481.1840359551443L1431.9181420242317 481.1840359551443Q1431.9181420242317 484.32162947049574 1431.1985104840137 488.09249874123924Q1430.4788789437953 491.8921532735915 1428.8669042937067 495.23124362020405Q1427.2549296436177 498.57033396681663 1424.7218266220498 500.8155843722975Q1422.1887236004814 503.0320495161696 1418.4466395913464 503.0320495161696L1418.4466395913464 503.0320495161696Q1416.4316712787354 503.0320495161696 1415.8559660465612 502.42755902238633Q1415.309046075995 501.823068528603 1415.309046075995 500.2974496633404L1415.309046075995 500.2974496633404Q1415.309046075995 499.3763212918611 1415.3666165992126 497.6204203337286Q1415.4241871224299 495.83573411398737 1415.4241871224299 494.22375946389855L1415.4241871224299 494.22375946389855Q1415.4241871224299 492.4102879825486 1414.906052413473 491.14373647176456Q1414.387917704516 489.87718496098046 1412.372949391905 489.87718496098046L1412.372949391905 489.87718496098046Q1410.041343201598 489.87718496098046 1407.1628170407248 491.63308591911294Q1404.284290879852 493.4177721388541 1401.4057647189788 496.23872777650956Q1398.4984532964972 499.08846867577375 1395.792638705277 502.68662637686487Q1393.0580388524477 506.2559988163473 1390.870358970184 509.96929756387334Q1388.6826790879209 513.6538110497906 1387.4161275771366 517.108042442838Q1386.1783613279613 520.5334885742768 1386.1783613279613 522.9802358110189L1386.1783613279613 522.9802358110189Q1386.1783613279613 526.5208229888925 1388.653893826312 528.5357913015037Q1391.1294263246627 530.5507596141147 1395.3608597811458 530.5507596141147L1395.3608597811458 530.5507596141147Q1399.9377163769336 530.5507596141147 1405.0902782048965 529.025140748852Q1410.242840032859 527.5283071451981 1415.3666165992126 525.196700954891Q1420.4616079039574 522.865094764584 1425.2399613310067 520.1304949117547Q1429.9895294964472 517.3958950589254 1433.8755398136254 514.9203625605747Q1437.7615501308037 512.444830062224 1440.409794198807 510.6601438424828Q1443.029253005201 508.90424288435037 1443.8352403302456 508.5012492218281L1443.8352403302456 508.5012492218281Q1445.476000241943 507.69526189678373 1446.886478060771 507.69526189678373L1446.886478060771 507.69526189678373Q1448.0954590483375 507.69526189678373 1448.9590168965997 508.2421818673496Q1449.8225747448614 508.78910183791544 1450.3119241922095 509.56630390135115Q1450.830058901167 510.31472070317807 1451.031555732428 511.17827855144Q1451.233052563689 512.0418363997019 1451.233052563689 512.6463268934851L1451.233052563689 512.6463268934851Q1451.233052563689 513.5674552649645 1451.031555732428 514.8340067757485Q1450.830058901167 516.0717730249239 1449.5059368671655 517.7125329366215L1449.5059368671655 517.7125329366215Q1449.016587419817 518.3170234304048 1446.2244170437702 520.7925559287555Q1443.4322466677236 523.2680884271061 1439.028101641588 526.6071787737187Q1434.652741877061 529.9462691203313 1428.924474816924 533.7459236526836Q1423.1962077567869 537.5455781850358 1416.6619533716053 540.6831717003872Q1410.1564842480325 543.8207652157387 1403.1616656771116 545.8933040515672Q1396.1956323677991 547.9658428873956 1389.4023106281388 547.9658428873956L1389.4023106281388 547.9658428873956Q1384.2497488001768 547.9658428873956 1380.2485974365632 546.3538682373069Q1376.24744607295 544.7131083256093 1373.5128462201205 541.9497232111713Q1370.7782463672916 539.1575528351245 1369.3677685484636 535.4154688259898Q1367.957290729636 531.6733848168551 1367.957290729636 527.5283071451981L1367.957290729636 527.5283071451981Q1367.957290729636 522.9802358110189 1370.087400088682 517.0504719196207Q1372.188724186119 511.1207080282225 1375.9308081952536 504.96066204395447Q1379.7016774659974 498.7718307980777 1384.739098247525 492.81328164507084Q1389.8053042906613 486.8259472304552 1395.7350681820594 482.1915201114498Q1401.6360468118487 477.5283077308357 1408.0839454122042 474.70735209318025Q1414.5030587509505 471.85761119391606 1421.066098397741 471.85761119391606L1421.066098397741 471.85761119391606Q1423.3113488032218 471.85761119391606 1425.2687465926156 472.37574590287323Q1427.2549296436177 472.86509535022157 1428.722977985663 473.93015002974454Q1430.1910263277082 474.9952047092675 1431.05458417597 476.80867619061746Q1431.9181420242317 478.65093293357614 1431.9181420242317 481.1840359551443ZM1497.1743300912208 481.1840359551443L1497.1743300912208 481.1840359551443Q1497.1743300912208 484.32162947049574 1496.4834838126112 488.09249874123924Q1495.7638522723928 491.8921532735915 1494.1518776223038 495.23124362020405Q1492.5111177106064 498.57033396681663 1490.0067999506473 500.8155843722975Q1487.4736969290789 503.0320495161696 1483.731612919944 503.0320495161696L1483.731612919944 503.0320495161696Q1481.6878593457245 503.0320495161696 1481.1409393751583 502.42755902238633Q1480.5940194045925 501.823068528603 1480.5940194045925 500.2974496633404L1480.5940194045925 500.2974496633404Q1480.5940194045925 499.3763212918611 1480.6228046662013 497.6204203337286Q1480.6803751894186 495.83573411398737 1480.6803751894186 494.22375946389855L1480.6803751894186 494.22375946389855Q1480.6803751894186 492.4102879825486 1480.1910257420705 491.14373647176456Q1479.6728910331135 489.87718496098046 1477.657922720502 489.87718496098046L1477.657922720502 489.87718496098046Q1475.326316530195 489.87718496098046 1472.4477903693223 491.63308591911294Q1469.5404789468407 493.4177721388541 1466.661952785968 496.23872777650956Q1463.7834266250948 499.08846867577375 1461.0488267722658 502.68662637686487Q1458.3142269194364 506.2559988163473 1456.1553322987816 509.96929756387334Q1453.9676524165184 513.6538110497906 1452.7011009057342 517.108042442838Q1451.43454939495 520.5334885742768 1451.43454939495 522.9802358110189L1451.43454939495 522.9802358110189Q1451.43454939495 526.5208229888925 1453.9100818933007 528.5357913015037Q1456.3856143916514 530.5507596141147 1460.6458331097433 530.5507596141147L1460.6458331097433 530.5507596141147Q1465.1939044439227 530.5507596141147 1470.3752515334936 529.025140748852Q1475.527813361456 527.5283071451981 1480.6228046662013 525.196700954891Q1485.746581232555 522.865094764584 1490.4961493979954 520.1304949117547Q1495.2457175634358 517.3958950589254 1499.160513142223 514.9203625605747Q1503.0465234594012 512.444830062224 1505.6659822657957 510.6601438424828Q1508.3142263337986 508.90424288435037 1509.120213658843 508.5012492218281L1509.120213658843 508.5012492218281Q1510.732188308932 507.69526189678373 1512.1426661277596 507.69526189678373L1512.1426661277596 507.69526189678373Q1513.380432376935 507.69526189678373 1514.2439902251967 508.2421818673496Q1515.07876281185 508.78910183791544 1515.596897520807 509.56630390135115Q1516.1150322297644 510.31472070317807 1516.3165290610254 511.17827855144Q1516.5180258922865 512.0418363997019 1516.5180258922865 512.6463268934851L1516.5180258922865 512.6463268934851Q1516.5180258922865 513.5674552649645 1516.3165290610254 514.8340067757485Q1516.1150322297644 516.0717730249239 1514.790910195763 517.7125329366215L1514.790910195763 517.7125329366215Q1514.2727754868056 518.3170234304048 1511.5093903723678 520.7925559287555Q1508.717219996321 523.2680884271061 1504.3130749701854 526.6071787737187Q1499.9089299440498 529.9462691203313 1494.1806628839126 533.7459236526836Q1488.4811810853844 537.5455781850358 1481.9469267002028 540.6831717003872Q1475.4126723150216 543.8207652157387 1468.4466390057091 545.8933040515672Q1461.4518204347878 547.9658428873956 1454.6872839567363 547.9658428873956L1454.6872839567363 547.9658428873956Q1449.5059368671655 547.9658428873956 1445.5047855035518 546.3538682373069Q1441.5324194015475 544.7131083256093 1438.797819548718 541.9497232111713Q1436.0632196958886 539.1575528351245 1434.652741877061 535.4154688259898Q1433.2134787966247 531.6733848168551 1433.2134787966247 527.5283071451981L1433.2134787966247 527.5283071451981Q1433.2134787966247 522.9802358110189 1435.3435881556707 517.0504719196207Q1437.4736975147166 511.1207080282225 1441.2157815238515 504.96066204395447Q1444.957865532986 498.7718307980777 1450.0240715761224 492.81328164507084Q1455.0902776192588 486.8259472304552 1460.991256249048 482.1915201114498Q1466.9210201404462 477.5283077308357 1473.340133479193 474.70735209318025Q1479.7592468179396 471.85761119391606 1486.3510717263384 471.85761119391606L1486.3510717263384 471.85761119391606Q1488.5675368702105 471.85761119391606 1490.553719921213 472.37574590287323Q1492.5111177106064 472.86509535022157 1493.9791660526516 473.93015002974454Q1495.4472143946969 474.9952047092675 1496.3107722429586 476.80867619061746Q1497.1743300912208 478.65093293357614 1497.1743300912208 481.1840359551443ZM1547.174329505583 485.7321072893235L1547.174329505583 485.7321072893235Q1546.656194796626 485.61696624288857 1546.2532011341036 485.61696624288857Q1545.8502074715816 485.61696624288857 1545.360858024233 485.61696624288857L1545.360858024233 485.61696624288857Q1541.5036329686632 485.61696624288857 1538.1645426220507 487.1425851081512Q1534.8254522754382 488.6682039734138 1532.0332818993916 491.14373647176456Q1529.2698967849533 493.61926897011523 1527.08221690269 496.7568624854667Q1524.8945370204265 499.89445600081814 1523.1962065855114 502.9744789929522Q1521.469090888988 506.0545019850862 1520.2888951630298 508.90424288435037Q1519.137484698681 511.7251985220058 1518.5329942048975 513.6538110497906L1518.5329942048975 513.6538110497906Q1522.0735813827714 511.8403395684407 1525.8732359151236 509.5087333781336Q1529.6728904474758 507.1771271878266 1533.0119807940882 505.04701782878067Q1536.3510711407007 502.9169084697347 1538.8266036390514 501.2185780348197Q1541.3021361374022 499.49146233829595 1542.3096202937077 498.88697184451263L1542.3096202937077 498.88697184451263Q1546.8576916278867 496.0372309452485 1548.5848073244106 493.56169844689776Q1550.3119230209345 491.0861659485471 1550.3119230209345 489.27269446719714L1550.3119230209345 489.27269446719714Q1550.3119230209345 487.7470756019345 1549.3332241262378 486.8259472304552Q1548.3833104931496 485.93360412058456 1547.174329505583 485.7321072893235ZM1550.801272468283 471.77125540908986L1550.801272468283 471.77125540908986Q1559.2065688580315 471.77125540908986 1563.3516465296884 475.80119203431195Q1567.5255094629542 479.8599139211428 1567.5255094629542 487.02744406171627L1567.5255094629542 487.02744406171627Q1567.5255094629542 491.28766277980816 1565.2802590574734 495.9508751604223Q1563.0637939136013 500.6140875410364 1557.594594207943 505.4212262296941Q1552.1253945022845 510.2283649183519 1542.9716813107084 515.2370004382708Q1533.8179681191327 520.2456359581896 1520.0586130701604 525.2830567397173L1520.0586130701604 525.2830567397173Q1520.5479625175085 528.2191534238075 1523.1962065855114 529.8886985971138Q1525.815665391906 531.5582437704202 1530.1622398948239 531.5582437704202L1530.1622398948239 531.5582437704202Q1534.8254522754382 531.5582437704202 1540.1507256730529 530.2053364748099Q1545.4472138090591 528.823643917591 1550.6573461602393 526.7223198201536Q1555.867478511419 524.5922104611077 1560.8185435081205 522.116677962757Q1565.7983937664308 519.6411454644062 1569.799545130044 517.3958950589254Q1573.7719112320483 515.1794299150533 1576.4777258232689 513.5674552649645Q1579.1547551528806 511.9266953532669 1580.0470982627517 511.5237016907447L1580.0470982627517 511.5237016907447Q1580.9682266342306 510.9192111969614 1581.716643436058 510.8328554121352Q1582.4938454994935 510.71771436570026 1583.0983359932766 510.71771436570026L1583.0983359932766 510.71771436570026Q1584.3073169808436 510.71771436570026 1585.1133043058876 511.26463433626617Q1585.919291630932 511.8403395684407 1586.4949968631067 512.5887563702677Q1587.0419168336725 513.3659584337033 1587.2434136649335 514.2007310203564Q1587.444910496195 515.0642888686184 1587.444910496195 515.6687793624017L1587.444910496195 515.6687793624017Q1587.444910496195 516.5899077338811 1587.2434136649335 517.8564592446651Q1587.0419168336725 519.1230107554492 1585.717794799671 520.734985405538L1585.717794799671 520.734985405538Q1585.2284453523225 521.2531201144951 1582.3499191914498 523.4695852583673Q1579.4426077689682 525.6860504022394 1574.8945364347892 528.7372881327647Q1570.3464651006097 531.7597406016812 1564.3303454243855 535.1564014715113Q1558.3142257481609 538.5530623413413 1551.5784745317187 541.3740179789968Q1544.842723315276 544.2237588782609 1537.5600521282672 546.0948008828283Q1530.2773809412588 547.9658428873956 1523.1962065855114 547.9658428873956L1523.1962065855114 547.9658428873956Q1517.1225163860695 547.9658428873956 1512.4017334822383 545.6342366970887Q1507.7097358400156 543.3026305067815 1504.4282160166204 539.3590496663858Q1501.1179109316163 535.4154688259898 1499.4195804967012 530.2629069980273Q1497.6924648001777 525.081559908456 1497.6924648001777 519.4108633715364L1497.6924648001777 519.4108633715364Q1497.6924648001777 515.0642888686184 1499.4195804967012 509.8541565174384Q1501.1179109316163 504.6440241662585 1504.3706454934031 499.3763212918611Q1507.5945947935807 494.13740367907235 1512.3153776974123 489.1287681591535Q1517.007375339635 484.12013263923467 1522.8795687078155 480.26290758366497Q1528.7517620759963 476.40568252809527 1535.775365908526 474.0740763377882Q1542.8277550026646 471.77125540908986 1550.801272468283 471.77125540908986ZM1605.6659810945202 488.46670714215276L1605.6659810945202 488.46670714215276Q1611.8260270787882 491.6906564423304 1616.6907362906636 495.83573411398737Q1621.555445502539 499.98081178564433 1624.9521063723687 504.586453643041Q1628.31998198059 509.19209550043763 1630.1046682003312 513.9704489274866Q1631.8605691584635 518.720017092927 1631.8605691584635 523.2680884271061L1631.8605691584635 523.2680884271061Q1631.8605691584635 529.025140748852 1628.5790493350687 533.6307826062487Q1625.2975295116735 538.2364244636453 1619.9722561140588 541.4315885022143Q1614.6757679780526 544.6267525407832 1607.824875715175 546.2962977140894Q1601.0027687139063 547.9658428873956 1594.0367354045939 547.9658428873956L1594.0367354045939 547.9658428873956Q1588.7690325301965 547.9658428873956 1583.817967533495 546.7856471614377Q1578.8381172751847 545.6342366970887 1574.7506101267454 543.2162747219554Q1570.6631029783057 540.7695274852134 1567.7270062942157 536.9698729528611Q1564.7909096101248 533.1990036821177 1563.55314336095 527.9313008077202L1563.55314336095 527.9313008077202Q1563.3516465296884 527.1253134826759 1563.3516465296884 526.6071787737187L1563.3516465296884 526.6071787737187Q1563.3516465296884 523.8725789208895 1565.2802590574734 521.915181131496Q1567.2088715852583 519.9289980804936 1569.5404777755653 519.9289980804936L1569.5404777755653 519.9289980804936Q1570.6631029783057 519.9289980804936 1572.016010273916 520.3319917430158Q1573.3689175695263 520.734985405538 1574.0885491097447 522.1454632243657L1574.0885491097447 522.1454632243657Q1575.4126711437461 524.5922104611077 1577.773062595662 526.5208229888925Q1580.1622393091866 528.4206502550687 1583.0983359932766 529.8023428122876Q1586.034432677367 531.1552501078979 1589.3159525007623 531.9324521713336Q1592.5974723241575 532.6808689731606 1595.735065839509 532.6808689731606L1595.735065839509 532.6808689731606Q1598.9878004012953 532.6808689731606 1601.981467608603 532.0763784793772Q1604.9463495543023 531.4718879855939 1607.2203852213916 530.1477659515924Q1609.5232061500901 528.823643917591 1610.8185429224827 526.8086756049798Q1612.1426649564846 524.7937072923687 1612.1426649564846 521.8576106082785L1612.1426649564846 521.8576106082785Q1612.1426649564846 516.7050487803159 1609.8110587661772 512.3296890157892Q1607.4794525758703 507.98311451287105 1603.794939089953 504.2986010269537Q1600.1104256040358 500.6140875410364 1595.3896427002041 497.41892350246746Q1590.697645057981 494.22375946389855 1586.034432677367 491.28766277980816L1586.034432677367 491.28766277980816Q1585.51629796841 490.9998101637209 1584.5088138121046 489.53176182167573Q1583.501329655799 488.0637134796305 1583.501329655799 486.5380946143679L1583.501329655799 486.5380946143679Q1583.501329655799 485.3291136268013 1584.105820149582 484.60948208658306L1584.105820149582 484.60948208658306Q1585.717794799671 482.4793727275371 1587.847904158717 480.26290758366497Q1589.978013517763 478.0464424397928 1592.3959754928965 476.1754004352254Q1594.842722729638 474.30435843065806 1597.6636783672934 473.12416270470015Q1600.5134192665578 471.972752240351 1603.5358717354743 471.972752240351L1603.5358717354743 471.972752240351Q1605.7523368793463 471.972752240351 1607.6809494071313 472.5772427341343Q1609.6095619349162 473.1817332279176 1610.9336839689176 474.13164686100566Q1612.2290207413103 475.11034575570244 1613.006222804746 476.2617562200516Q1613.7546396065732 477.4131666844008 1613.7546396065732 478.449436102315L1613.7546396065732 478.449436102315Q1613.7546396065732 479.8599139211428 1613.0637933279636 481.1840359551443Q1612.3441617877456 482.4793727275371 1611.1927513233964 483.6883537151037Q1610.0125555974387 484.92611996427905 1608.5445072553935 486.1351009518457Q1607.0764589133478 487.3440819394123 1605.6659810945202 488.46670714215276ZM1677.1973561922118 489.6756881297194L1677.1973561922118 489.6756881297194Q1672.4477880267718 489.6756881297194 1668.0436430006362 492.06486484324387Q1663.6394979745005 494.42525629515967 1660.2716223662792 498.31126661233804Q1656.874961496449 502.2260621911252 1654.859993183838 507.11955666460915Q1652.8162396096186 512.0418363997019 1652.8162396096186 517.1943982276644L1652.8162396096186 517.1943982276644Q1652.8162396096186 519.1230107554492 1653.1328774873145 521.3970464225388Q1653.4207301034016 523.6710820896283 1654.3994289980988 525.6572651406307Q1655.3493426311866 527.6146629300242 1657.1628141125366 528.9387849640257Q1659.0050708554954 530.2629069980273 1662.027523324412 530.2629069980273L1662.027523324412 530.2629069980273Q1666.6907357050259 530.2629069980273 1671.0948807311615 527.7873744996766Q1675.4990257572972 525.2830567397173 1678.9244718887358 521.3106906377126Q1682.3787032817831 517.3095392740993 1684.3936715943942 512.2433332309629Q1686.4086399070052 507.1771271878266 1686.4086399070052 502.0245653598641L1686.4086399070052 502.0245653598641Q1686.4086399070052 499.98081178564433 1686.1783578141353 497.82191716498966Q1685.919290459657 495.63423728272625 1684.94059156496 493.82076580137635Q1683.9906779318721 492.0072943200264 1682.1772064505221 490.8270985940685Q1680.3349497075633 489.6756881297194 1677.1973561922118 489.6756881297194ZM1682.4650590666097 471.85761119391606L1682.4650590666097 471.85761119391606Q1686.322284122179 471.85761119391606 1690.7264291483148 472.86509535022157Q1695.1305741744504 473.8725795065271 1698.872658183585 476.3193267432691Q1702.6147421927199 478.73728871840234 1705.0902746910706 482.73844008201564Q1707.5658071894213 486.739591445629 1707.5658071894213 492.6117848138097L1707.5658071894213 492.6117848138097Q1707.5658071894213 495.63423728272625 1706.7598198643768 499.5490328615134Q1705.9538325393323 503.43504317869184 1704.3418578892433 507.69526189678373L1704.3418578892433 507.69526189678373Q1705.3493420455488 508.90424288435037 1706.6734640795507 509.39359233169876Q1707.9688008519433 509.9117270406559 1709.4944197172058 509.9117270406559L1709.4944197172058 509.9117270406559Q1711.6245290762522 509.9117270406559 1714.186417359429 508.70274605308924Q1716.7770909042142 507.4937650655226 1719.5116907570437 505.5651525377378Q1722.246290609873 503.63654000995297 1724.980890462702 501.2185780348197Q1727.7154903155315 498.7718307980777 1730.1334522906645 496.3538688229445Q1732.5801995274064 493.9359068478113 1734.5375973168002 491.7482269655479Q1736.5237803678024 489.56054708328446 1737.8191171401954 488.0637134796305L1737.8191171401954 488.0637134796305Q1738.5387486804134 487.3440819394123 1739.546232836719 487.3440819394123L1739.546232836719 487.3440819394123Q1740.9567106555469 487.3440819394123 1742.0793358582873 488.8121302814575Q1743.2019610610278 490.28017862350265 1743.2019610610278 492.89963742989704Q1743.2019610610278 495.54788149790005 1741.6187716725476 498.9733276293388Q1740.0643675456763 502.42755902238633 1735.8041488275844 506.1696430315211L1735.8041488275844 506.1696430315211Q1733.386186852451 508.78910183791544 1730.2485933370995 512.2433332309629Q1727.110999821748 515.6687793624017 1723.5704126438745 518.720017092927Q1720.0298254660006 521.7424695618436 1716.1726004104312 523.8725789208895Q1712.3153753548613 526.0026882799355 1708.4869355609003 526.0026882799355L1708.4869355609003 526.0026882799355Q1705.8386914928974 526.0026882799355 1703.3631589945467 525.196700954891Q1700.887626496196 524.3907136298466 1698.354523474628 522.548456886888L1698.354523474628 522.548456886888Q1694.727580511928 528.2191534238075 1690.064368131314 532.8823658044216Q1685.4011557506997 537.5455781850358 1679.7016739521714 540.8846685316482Q1673.9734068920343 544.2237588782609 1667.3527967220266 546.0948008828283Q1660.7034012904105 547.9658428873956 1653.2192332721406 547.9658428873956L1653.2192332721406 547.9658428873956Q1650.398277634485 547.9658428873956 1646.6561936253506 546.8432176846552Q1642.9141096162157 545.7493777435236 1639.5174487463855 543.158704198738Q1636.1207878765558 540.5680306539523 1633.7891816862484 536.4229529822953Q1631.4575754959415 532.2778753106384 1631.4575754959415 526.3193261576314L1631.4575754959415 526.3193261576314Q1631.4575754959415 522.2606042708006 1632.781697529943 516.5899077338811Q1634.1058195639448 510.9192111969614 1636.7828488935565 504.903091520737Q1639.4598782231683 498.88697184451263 1643.5761706332164 492.95720795311445Q1647.6636777816561 487.02744406171627 1653.3343743185756 482.33544641949345Q1659.0050708554954 477.64344877727063 1666.2877420425039 474.736137354789Q1673.5704132295123 471.85761119391606 1682.4650590666097 471.85761119391606ZM1759.3792780851336 486.5380946143679L1759.5807749163946 486.422953567933Q1763.52435575679 484.00499159279974 1767.7270039516648 481.9900232801887Q1771.9296521465394 479.946269705969 1775.873232986935 478.47822136392375Q1779.8168138273313 477.0101730218786 1783.414971528422 476.1754004352254Q1787.0131292295132 475.31184258696356 1789.8340848671687 475.31184258696356L1789.8340848671687 475.31184258696356Q1794.4109414629565 475.31184258696356 1796.8864739613073 477.47073720761824Q1799.362006459658 479.65841708988165 1799.362006459658 484.8109789178441L1799.362006459658 484.8109789178441Q1799.362006459658 485.93360412058456 1799.246865413223 487.20015563136866Q1799.160509628397 488.46670714215276 1798.8438717507006 489.87718496098046L1798.8438717507006 489.87718496098046Q1798.3545223033525 492.4966437673748 1795.8214192817845 496.0372309452485Q1793.288316260216 499.57781812312214 1789.8916553903864 503.43504317869184Q1786.4949945205562 507.29226823426154 1782.6089842033775 511.17827855144Q1778.7229738861993 515.0642888686184 1775.4126688011952 518.3745939536223Q1772.1311489778004 521.6561137770173 1769.9722543571456 524.0740757521505Q1767.7845744748824 526.5208229888925 1767.7845744748824 527.4131660987632L1767.7845744748824 527.4131660987632Q1767.7845744748824 528.2191534238075 1767.8709302597085 528.5357913015037Q1767.9860713061435 528.823643917591 1768.7920586311875 528.823643917591L1768.7920586311875 528.823643917591Q1774.2612583368464 526.5208229888925 1780.997009553289 523.2105179038888Q1787.7327607697316 519.9289980804936 1794.4109414629565 516.5035519490548Q1801.089122156182 513.0493205560074 1807.0476713091884 509.7678007326122Q1813.0062204621954 506.45749564760837 1817.1800833954612 504.03953367247516L1817.1800833954612 504.03953367247516Q1818.0724265053318 503.55018422512677 1819.051125400029 503.17597582421325Q1820.0010390331167 502.8305526849085 1820.8070263581612 502.8305526849085L1820.8070263581612 502.8305526849085Q1822.6204978395112 502.8305526849085 1823.8582640886862 504.03953367247516Q1825.0672450762531 505.24851466004174 1825.0672450762531 507.29226823426154L1825.0672450762531 507.29226823426154Q1825.0672450762531 509.5950891629598 1823.0810620252505 512.5887563702677Q1821.1236642358572 515.5824235775756 1816.4604518552428 518.8063728777531L1816.4604518552428 518.8063728777531Q1812.9198646773693 521.051623283234 1808.5157196512337 523.815008397672Q1804.1115746250985 526.6071787737187 1799.3044359364403 529.6008459810266Q1794.4972972477826 532.5945131883343 1789.6038027742989 535.4154688259898Q1784.6815230392062 538.2364244636453 1780.1334517050268 540.4816748691262Q1775.5853803708478 542.6981400129982 1771.5842290072346 544.0798325702173Q1767.5830776436214 545.4327398658274 1764.6469809595305 545.4327398658274L1764.6469809595305 545.4327398658274Q1757.6521623886097 545.4327398658274 1754.1691457339534 542.093649519215Q1750.6861290792972 538.7545591726023 1750.6861290792972 533.4868562982049L1750.6861290792972 533.4868562982049Q1750.6861290792972 532.6808689731606 1750.7724848641233 532.2778753106384L1750.7724848641233 532.2778753106384Q1751.4921164043417 527.8161597612853 1753.4207289321266 523.6710820896283Q1755.3493414599116 519.5260044179713 1757.7673034350446 515.7839204088366Q1760.185265410178 512.0418363997019 1762.833509478181 508.6451755298718Q1765.452968284575 505.24851466004174 1767.6406481668387 502.2836327143427Q1769.7995427874935 499.2899655070349 1771.210020606321 496.7568624854667Q1772.6492836867574 494.22375946389855 1772.6492836867574 492.0936501048526L1772.6492836867574 492.0936501048526Q1772.6492836867574 491.6043006575042 1772.4477868554964 491.0861659485471Q1772.2462900242353 490.5968165011987 1771.526658484017 490.5968165011987L1771.526658484017 490.5968165011987Q1770.3176774964504 490.5968165011987 1767.5255071204037 491.4891596110693Q1764.733336744357 492.4102879825486 1761.5957432290052 493.9359068478113Q1758.4869349752626 495.4327404514651 1755.6371940759987 497.41892350246746Q1752.8162384383431 499.3763212918611 1751.5784721891678 501.6215716973419L1751.5784721891678 501.6215716973419Q1749.9664975390792 504.44252733499735 1747.8363881800328 508.78910183791544Q1745.7350640825957 513.1644616024423 1743.4322431538976 517.9140297678825Q1741.158207486808 522.6635979333229 1739.0568833893708 527.3268103139369Q1736.9267740303249 531.9612374329423 1735.401155165062 535.3003277795549L1735.401155165062 535.3003277795549Q1734.1921741774954 538.2364244636453 1732.2059911264932 540.5680306539523Q1730.2485933370995 542.8996368442594 1727.9169871467925 544.5116114943482Q1725.5853809564856 546.1523714060457 1723.167418981352 547.0447145159164Q1720.7206717446102 547.9658428873956 1718.7057034319992 547.9658428873956L1718.7057034319992 547.9658428873956Q1716.3740972416922 547.9658428873956 1715.021189946082 546.7568618998291Q1713.6394973888632 545.5478809122624 1713.6394973888632 542.8132810594332L1713.6394973888632 542.8132810594332Q1713.6394973888632 541.6906558566927 1713.984920528168 540.0211106833865Q1714.3591289290812 538.3515655100803 1715.4529688702128 536.3365971974692L1715.4529688702128 536.3365971974692Q1717.2952256131716 532.8823658044216 1719.1662676177389 528.823643917591Q1721.037309622306 524.7937072923687 1723.4552715974396 519.5835749411888Q1725.8732335725726 514.3734425900088 1729.0683976111418 507.63769137356627Q1732.2635616497105 500.9019401571237 1736.6101361526285 492.0936501048526L1736.6101361526285 492.0936501048526Q1735.199658333801 490.88466911728597 1734.2497447007127 489.1287681591535Q1733.271045806016 487.3440819394123 1733.271045806016 484.72462313301793L1733.271045806016 484.72462313301793Q1733.271045806016 482.277875896276 1734.2785299623215 480.5219749381435Q1735.286014118627 478.73728871840234 1737.013129815151 477.64344877727063Q1738.7402455116744 476.5208235745302 1741.0142811787641 475.97390360396435Q1743.2883168458538 475.39819837178976 1745.8214198674218 475.39819837178976L1745.8214198674218 475.39819837178976Q1748.4408786738163 475.39819837178976 1751.0891227418192 475.8587625575294Q1753.7085815482137 476.3193267432691 1755.7811203840424 477.21166985313965Q1757.8536592198707 478.132798224619 1759.1777812538721 479.4569202586205Q1760.5019032878736 480.7810422926221 1760.5019032878736 482.4793727275371L1760.5019032878736 482.4793727275371Q1760.5019032878736 482.7960106052331 1760.3004064566126 483.2853600525815Q1760.0989096253516 483.8034947615386 1759.8398422708733 484.40798525532193Q1759.5807749163946 485.01247574910525 1759.3792780851336 485.53061045806237Q1759.1777812538721 486.01995990541076 1759.1777812538721 486.3365977831068L1759.1777812538721 486.3365977831068Q1759.1777812538721 486.5380946143679 1759.292922300307 486.5380946143679L1759.292922300307 486.5380946143679L1759.3792780851336 486.5380946143679ZM1833.9618909133505 457.8967593136825L1833.9618909133505 457.8967593136825Q1833.9618909133505 455.5651531233754 1834.8254487616123 453.08962062502474Q1835.689006609874 450.61408812667406 1837.416122306398 448.599119814063Q1839.114452741313 446.55536623984324 1841.7051262860987 445.26002946745047Q1844.2957998308839 443.9359074334489 1847.8363870087578 443.9359074334489L1847.8363870087578 443.9359074334489Q1853.7085803769382 443.9359074334489 1856.0401865672457 446.2099431005385Q1858.3430074959438 448.4839787676281 1858.3430074959438 451.93821016067557L1858.3430074959438 451.93821016067557Q1858.3430074959438 453.8380374268517 1857.594590694117 456.1696436171587Q1856.8461738922902 458.5012498074658 1855.3205550270272 460.4874328584681Q1853.7949361617648 462.4448306478617 1851.3769741866313 463.7689526818632Q1848.9302269498894 465.09307471586476 1845.591136603277 465.09307471586476L1845.591136603277 465.09307471586476Q1839.315949572574 465.09307471586476 1836.8116318126145 463.1068916648624Q1834.278528791046 461.12070861386013 1833.9618909133505 457.8967593136825ZM1822.8219946707723 480.66590124618716L1822.8219946707723 480.66590124618716Q1824.5491103672957 477.8449456085317 1826.794360772777 476.6071793593564Q1829.010825916649 475.39819837178976 1831.342432106956 475.39819837178976L1831.342432106956 475.39819837178976Q1835.170871900917 475.39819837178976 1837.9630422769637 477.87373087014043Q1840.7552126530104 480.34926336849117 1840.7552126530104 484.20648842406086L1840.7552126530104 484.20648842406086Q1840.6400716065755 485.1276167955402 1840.4961452985317 486.01995990541076Q1840.352218990488 486.94108827689007 1839.834084281531 487.86221664836944L1839.834084281531 487.86221664836944Q1838.4236064627034 490.4816754547638 1837.502478091224 492.29514693611367Q1836.6101349813534 494.13740367907235 1835.8329329179178 495.6918078059437Q1835.0845161160905 497.2749971944238 1834.3648845758726 498.7718307980777Q1833.674038297263 500.2974496633404 1832.6377688793486 502.42755902238633L1832.6377688793486 502.42755902238633Q1831.4287878917821 504.96066204395447 1829.931954288128 507.9255439896536Q1828.4063354228656 510.9192111969614 1827.0246428656465 514.0568047123129Q1825.6717355700366 517.1943982276644 1824.6930366753395 520.2456359581896Q1823.7431230422517 523.2680884271061 1823.7431230422517 525.8011914486742L1823.7431230422517 525.8011914486742Q1823.7431230422517 528.5357913015037 1825.1248155994704 529.3993491497654Q1826.4777228950807 530.2629069980273 1829.010825916649 530.2629069980273L1829.010825916649 530.2629069980273Q1831.8317815543046 530.2629069980273 1834.9405898080472 529.025140748852Q1838.020612800181 527.8161597612853 1841.1582063155324 525.8875472335005Q1844.2957998308839 523.9877199673244 1847.3182522998004 521.5121874689737Q1850.3694900303258 519.0078697090142 1853.0465193599375 516.5035519490548Q1855.7235486895497 513.9704489274866 1857.997584356639 511.63884273717963Q1860.2716200237287 509.30723654687256 1861.7972388889912 507.4937650655226L1861.7972388889912 507.4937650655226Q1863.8122072016026 505.5651525377378 1865.855960775822 505.5651525377378L1865.855960775822 505.5651525377378Q1867.669432257172 505.5651525377378 1868.8208427215209 507.1771271878266Q1870.001038447479 508.78910183791544 1870.001038447479 511.32220485948363L1870.001038447479 511.32220485948363Q1870.001038447479 513.6538110497906 1868.8208427215209 516.2732698561849Q1867.669432257172 518.921513924188 1865.0211881891687 521.2531201144951L1865.0211881891687 521.2531201144951Q1859.8686263612067 526.5208229888925 1854.5145677019827 531.3279616775503Q1849.1605090427593 536.135100366208 1843.5185977674482 539.8196138521253Q1837.9054717537465 543.5041273380427 1832.2347752168266 545.7493777435236Q1826.5928639415156 547.9658428873956 1820.8070263581612 547.9658428873956L1820.8070263581612 547.9658428873956Q1812.6032267996734 547.9658428873956 1807.9112291574506 543.7631946925212Q1803.190446253619 539.5605464976468 1803.190446253619 530.6659006605496L1803.190446253619 530.6659006605496Q1803.190446253619 526.0026882799355 1804.5145682876205 521.5409727305823Q1805.838690321622 517.108042442838 1807.652161802972 512.9053942479636Q1809.465633284322 508.70274605308924 1811.5093868585418 504.78795047430214Q1813.5243551711528 500.9019401571237 1814.9348329899804 497.36135297925L1814.9348329899804 497.36135297925Q1815.4529676989378 496.0372309452485 1816.7195192097215 493.30263109241923Q1817.9860707205057 490.5968165011987 1819.3965485393337 487.7470756019345L1819.3965485393337 487.7470756019345Q1821.0085231894222 484.40798525532193 1822.8219946707723 480.66590124618716ZM1896.915258051641 489.6756881297194L1896.915258051641 489.6756881297194Q1892.1656898862002 489.6756881297194 1887.761544860065 492.06486484324387Q1883.3573998339293 494.42525629515967 1879.9607389640992 498.31126661233804Q1876.564078094269 502.2260621911252 1874.5491097816584 507.11955666460915Q1872.5341414690474 512.0418363997019 1872.5341414690474 517.1943982276644L1872.5341414690474 517.1943982276644Q1872.5341414690474 519.1230107554492 1872.8219940851345 521.3970464225388Q1873.1386319628305 523.6710820896283 1874.0885455959187 525.6572651406307Q1875.0672444906154 527.6146629300242 1876.8807159719654 528.9387849640257Q1878.6941874533154 530.2629069980273 1881.7454251838403 530.2629069980273L1881.7454251838403 530.2629069980273Q1886.3798523028458 530.2629069980273 1890.783997328981 527.7873744996766Q1895.1881423551172 525.2830567397173 1898.6423737481646 521.3106906377126Q1902.0678198796031 517.3095392740993 1904.0827881922141 512.2433332309629Q1906.126541766434 507.1771271878266 1906.126541766434 502.0245653598641L1906.126541766434 502.0245653598641Q1906.126541766434 499.98081178564433 1905.8674744119553 497.82191716498966Q1905.608407057477 495.63423728272625 1904.6584934243888 493.82076580137635Q1903.6797945296921 492.0072943200264 1901.866323048342 490.8270985940685Q1900.052851566992 489.6756881297194 1896.915258051641 489.6756881297194ZM1902.1829609260385 471.85761119391606L1902.1829609260385 471.85761119391606Q1906.011400719999 471.85761119391606 1910.4155457461347 472.86509535022157Q1914.81969077227 473.8725795065271 1918.561774781405 476.3193267432691Q1922.3038587905398 478.73728871840234 1924.7793912888906 482.73844008201564Q1927.2837090488497 486.739591445629 1927.2837090488497 492.6117848138097L1927.2837090488497 492.6117848138097Q1927.2837090488497 495.63423728272625 1926.4489364621968 499.5490328615134Q1925.6429491371523 503.43504317869184 1924.0309744870633 507.69526189678373L1924.0309744870633 507.69526189678373Q1925.0384586433688 508.90424288435037 1926.3625806773707 509.39359233169876Q1927.6867027113722 509.9117270406559 1929.1835363150258 509.9117270406559L1929.1835363150258 509.9117270406559Q1931.3136456740722 509.9117270406559 1933.9043192188574 508.70274605308924Q1936.4662075020346 507.4937650655226 1939.200807354864 505.5651525377378Q1941.935407207693 503.63654000995297 1944.670007060522 501.2185780348197Q1947.4046069133515 498.7718307980777 1949.8513541500934 496.3538688229445Q1952.2693161252264 493.9359068478113 1954.2267139146202 491.7482269655479Q1956.2128969656223 489.56054708328446 1957.5370189996238 488.0637134796305L1957.5370189996238 488.0637134796305Q1958.2278652782334 487.3440819394123 1959.2641346961477 487.3440819394123L1959.2641346961477 487.3440819394123Q1960.6746125149757 487.3440819394123 1961.7684524561073 488.8121302814575Q1962.8910776588477 490.28017862350265 1962.8910776588477 492.89963742989704Q1962.8910776588477 495.54788149790005 1961.3366735319764 498.9733276293388Q1959.7534841434963 502.42755902238633 1955.4932654254044 506.1696430315211L1955.4932654254044 506.1696430315211Q1953.0753034502713 508.78910183791544 1949.9377099349194 512.2433332309629Q1946.8001164195684 515.6687793624017 1943.2595292416945 518.720017092927Q1939.7189420638206 521.7424695618436 1935.8617170082512 523.8725789208895Q1932.0332772142901 526.0026882799355 1928.1760521587203 526.0026882799355L1928.1760521587203 526.0026882799355Q1925.5565933523262 526.0026882799355 1923.0810608539755 525.196700954891Q1920.6055283556248 524.3907136298466 1918.0724253340563 522.548456886888L1918.0724253340563 522.548456886888Q1914.416697109748 528.2191534238075 1909.753484729134 532.8823658044216Q1905.1190576101285 537.5455781850358 1899.3907905499914 540.8846685316482Q1893.6625234898543 544.2237588782609 1887.0419133198466 546.0948008828283Q1880.4213031498389 547.9658428873956 1872.9371351315694 547.9658428873956L1872.9371351315694 547.9658428873956Q1870.087394232305 547.9658428873956 1866.3453102231706 546.8432176846552Q1862.6032262140357 545.7493777435236 1859.2065653442055 543.158704198738Q1855.8386897359842 540.5680306539523 1853.5070835456772 536.4229529822953Q1851.1754773553703 532.2778753106384 1851.1754773553703 526.3193261576314L1851.1754773553703 526.3193261576314Q1851.1754773553703 522.2606042708006 1852.4995993893717 516.5899077338811Q1853.7949361617648 510.9192111969614 1856.4719654913765 504.903091520737Q1859.177780082597 498.88697184451263 1863.2652872310364 492.95720795311445Q1867.3527943794757 487.02744406171627 1873.0234909163955 482.33544641949345Q1878.6941874533154 477.64344877727063 1885.9768586403238 474.736137354789Q1893.2595298273322 471.85761119391606 1902.1829609260385 471.85761119391606ZM1973.0234897451205 488.46670714215276L1973.0234897451205 488.46670714215276Q1979.1835357293885 491.6906564423304 1984.0482449412634 495.83573411398737Q1988.9129541531388 499.98081178564433 1992.28082976136 504.586453643041Q1995.6774906311898 509.19209550043763 1997.4621768509314 513.9704489274866Q1999.2180778090637 518.720017092927 1999.2180778090637 523.2680884271061L1999.2180778090637 523.2680884271061Q1999.2180778090637 529.025140748852 1995.9365579856685 533.6307826062487Q1992.6550381622737 538.2364244636453 1987.3297647646586 541.4315885022143Q1982.0332766286524 544.6267525407832 1975.1823843657753 546.2962977140894Q1968.3602773645061 547.9658428873956 1961.3654587935853 547.9658428873956L1961.3654587935853 547.9658428873956Q1956.1265411807963 547.9658428873956 1951.146690922486 546.7856471614377Q1946.195625925785 545.6342366970887 1942.1081187773452 543.2162747219554Q1937.991826367297 540.7695274852134 1935.0557296832067 536.9698729528611Q1932.1196329991162 533.1990036821177 1930.9106520115497 527.9313008077202L1930.9106520115497 527.9313008077202Q1930.7091551802887 527.1253134826759 1930.7091551802887 526.6071787737187L1930.7091551802887 526.6071787737187Q1930.7091551802887 523.8725789208895 1932.6377677080736 521.915181131496Q1934.5663802358586 519.9289980804936 1936.8979864261655 519.9289980804936L1936.8979864261655 519.9289980804936Q1937.991826367297 519.9289980804936 1939.3735189245162 520.3319917430158Q1940.726426220126 520.734985405538 1941.4460577603445 522.1454632243657L1941.4460577603445 522.1454632243657Q1942.7413945327376 524.5922104611077 1945.1305712462622 526.5208229888925Q1947.5197479597864 528.4206502550687 1950.4558446438768 529.8023428122876Q1953.3919413279668 531.1552501078979 1956.6734611513625 531.9324521713336Q1959.9549809747573 532.6808689731606 1963.0925744901087 532.6808689731606L1963.0925744901087 532.6808689731606Q1966.3453090518951 532.6808689731606 1969.310190997594 532.0763784793772Q1972.303858204902 531.4718879855939 1974.5778938719914 530.1477659515924Q1976.8519295390815 528.823643917591 1978.1760515730825 526.8086756049798Q1979.5001736070844 524.7937072923687 1979.5001736070844 521.8576106082785L1979.5001736070844 521.8576106082785Q1979.5001736070844 516.7050487803159 1977.1685674167775 512.3296890157892Q1974.8369612264705 507.98311451287105 1971.1524477405528 504.2986010269537Q1967.4391489930272 500.6140875410364 1962.747151350804 497.41892350246746Q1958.0263684469724 494.22375946389855 1953.3919413279668 491.28766277980816L1953.3919413279668 491.28766277980816Q1952.8738066190099 490.9998101637209 1951.8663224627044 489.53176182167573Q1950.8588383063989 488.0637134796305 1950.8588383063989 486.5380946143679L1950.8588383063989 486.5380946143679Q1950.8588383063989 485.3291136268013 1951.4633288001824 484.60948208658306L1951.4633288001824 484.60948208658306Q1953.0753034502713 482.4793727275371 1955.2054128093173 480.26290758366497Q1957.3355221683628 478.0464424397928 1959.7534841434963 476.1754004352254Q1962.1714461186293 474.30435843065806 1965.0211870178937 473.12416270470015Q1967.8421426555492 471.972752240351 1970.8933803860746 471.972752240351L1970.8933803860746 471.972752240351Q1973.1098455299466 471.972752240351 1975.0384580577315 472.5772427341343Q1976.967070585516 473.1817332279176 1978.262407357909 474.13164686100566Q1979.5865293919105 475.11034575570244 1980.3637314553462 476.2617562200516Q1981.1121482571734 477.4131666844008 1981.1121482571734 478.449436102315L1981.1121482571734 478.449436102315Q1981.1121482571734 479.8599139211428 1980.392516716955 481.1840359551443Q1979.7016704383454 482.4793727275371 1978.5214747123873 483.6883537151037Q1977.3700642480385 484.92611996427905 1975.9020159059933 486.1351009518457Q1974.433967563948 487.3440819394123 1973.0234897451205 488.46670714215276Z " fill="#006838" transform="matrix(0.4376710944065422,0,0,0.43767109440654217,0,92.32879155362617)"/></g></svg>